<?xml version="1.0" encoding="utf-8"?>
<!-- Generator: Adobe Illustrator 16.0.0, SVG Export Plug-In . SVG Version: 6.00 Build 0)  -->
<!DOCTYPE svg PUBLIC "-//W3C//DTD SVG 1.1//EN" "http://www.w3.org/Graphics/SVG/1.1/DTD/svg11.dtd">
<svg version="1.1" xmlns="http://www.w3.org/2000/svg" xmlns:xlink="http://www.w3.org/1999/xlink" x="0px" y="0px" width="631.8px"
	 height="510px" viewBox="0 0 631.8 510" enable-background="new 0 0 631.8 510" xml:space="preserve">
<g id="Calque_1" display="none" opacity="0.4">
	
		<image display="inline" overflow="visible" width="595" height="595" xlink:href="D:\Users\Stagiaire\Desktop\avion.jpg"  transform="matrix(0.5196 0 0 0.5196 249.1431 101.3145)">
	</image>
</g>
<g id="Calque_2">
	<polygon fill="#FF9769" points="323,149.6 445.5,111.6 346.2,151.9 	"/>
	<polygon fill="#FF9769" points="361.7,163.9 357.5,196.4 382.7,183.6 	"/>
	<path fill="#FF9769" d="M393.3,57.3c0,0,15.3,13.1,12.5,26.8c0,0-1.8,11.6,2.3,17.9c0,0-7.5-3-7.8-3.4s-3.5-6.5-3.6-6.9
		s-0.3-9.5-0.3-9.5L395,72l-2.8-7.1l-3.8-4.1L393.3,57.3z"/>
	<path fill="#FF9769" d="M395.7,4.5l-0.2,3.3l1.1,4.6l1.2,3.7l2.3,2.2l2.3,1.7c0,0,1.7,1.2,2,1.4s3.2,1.3,3.4,1.3s3.2,0.6,3.2,0.6
		l3.7-0.3l4.3-2.1l3.4-1.4l-1.4-2.2l-7.5-5.2c0,0-6.5-4.3-6.8-4.4s-6.6-2.9-6.9-3S395.7,4.5,395.7,4.5z"/>
	<polygon fill="#FF9769" points="354.9,18.3 355.2,21.5 355.8,24.5 354.4,27.4 353,30.6 350.3,33.5 347.7,35.7 344,36.3 342.5,36.4 
		344.8,31.9 346.6,26.6 350.1,22.5 	"/>
	<polygon fill="#FF9769" points="375.9,26.6 371.3,29.4 367.5,34.4 366.9,38.9 366.6,39.5 368,43.3 369.5,46 371.2,48.3 373.7,50 
		377,51 379.8,52.4 383.5,52.5 387.3,52 392.6,50.8 396.1,48.1 398.6,44.9 400,41.4 400.2,37.8 400.2,34.9 399,32.1 396.8,29.5 
		394,28.1 391,26.1 385.2,25.3 381,25 	"/>
	<path fill="#FF9769" d="M340.2,56.5l3.4-0.3L348,57l2.8,1.3l2.1,1.9l2.3,2.4l1,3l1.1,2.9l-0.1,3.1l-0.9,3.8l-1.3,2.5l-1.8,2.6
		l-2.3,1.5l-4.3-4c0,0-3.9-6.4-3.9-6.8s-2.5-9.6-2.5-9.6L340.2,56.5z"/>
	<g>
		<path fill="#EF5816" d="M357.2,198.5c0.1,0,0.1,0,0.2,0c0.1,0,0.2-0.1,0.3-0.1c0.1,0,0.1,0,0.2-0.1l25.3-12.1c0,0,0.1,0,0.1-0.1
			l17.5,17.8c0.4,0.4,0.9,0.6,1.3,0.4c0.3-0.1,0.5-0.2,0.7-0.5l59.1-96c0.5-0.4,0.7-1.2,0.4-2.1c0,0,0,0,0,0
			c-0.1-0.3-0.2-0.5-0.3-0.7c-0.5-0.8-1.3-1.1-1.9-0.8l-1.4,0.8l-142.6,45.7c-0.7,0.2-1.1,1-0.9,2c0.2,1,1,1.8,1.7,1.7l28.3-0.6
			l10.8,42.9c0,0,0.2,0,0.2,0c0,0,0,0,0,0c-1,0.2-0.2,0-0.2,0c0.1,0.4,0.2,0.8,0.4,1.1C356.7,198.4,357.2,198.5,357.2,198.5z
			 M405.1,126.1l-59.5,23.7l-15.3,0.4L405.1,126.1z M348,153.3l85.4-34l-72.5,40.9c0,0,0,0,0,0c-0.1,0-0.1,0.1-0.2,0.2
			c-0.1,0.1-0.1,0.1-0.2,0.2c0,0-0.1,0.1-0.1,0.1c0,0.1-0.1,0.2-0.1,0.2c0,0,0,0.1,0,0.1c0,0.1-0.1,0.2-0.1,0.3c0,0,0,0,0,0
			l-3.5,27.2L348,153.3z M359.1,193.4l3.7-28l17.5,17.8L359.1,193.4z M401.1,199.8l-36.5-37.1l90.9-51.3L401.1,199.8z"/>
		<path fill="#EF5816" d="M357.3,198.6C357.3,198.6,357.4,198.6,357.3,198.6C357.4,198.6,357.4,198.6,357.3,198.6
			C357.4,198.6,357.3,198.6,357.3,198.6L357.3,198.6z"/>
	</g>
	<g>
		<path fill="#FF9769" d="M105.7,411.9C105.7,411.9,105.6,411.9,105.7,411.9c-4.2,0-7.6,0.1-10.8-0.1c-1.1-0.1-1.9-0.8-1.9-1.8
			s1-1.7,2.1-1.6c3.1,0.2,6.4,0.3,10.5,0.3c1.1,0,2,0.6,2,1.6C107.6,411.3,106.8,411.9,105.7,411.9z M116.3,411.9
			c-1.1,0-2-0.6-2-1.5c0-1,0.9-1.7,2-1.7c3.6,0,7.2-0.1,10.6-0.2c1.1,0,2,0.7,2.1,1.7c0,1-0.8,1.6-1.9,1.7
			C123.6,412,120,411.9,116.3,411.9C116.3,411.9,116.3,411.9,116.3,411.9z M137.6,411.5c-1,0-1.9-0.7-2-1.6c-0.1-1,0.7-1.8,1.8-1.9
			c3.6-0.3,7.1-0.6,10.5-1c1.1-0.1,2.1,0.6,2.2,1.5c0.1,1-0.6,1.9-1.7,2c-3.5,0.4-7,0.7-10.7,1C137.7,411.5,137.6,411.5,137.6,411.5
			z M84.4,411.1c-0.1,0-0.2,0-0.3,0c-2.9-0.4-5.6-0.8-8.3-1.4c-0.7-0.1-1.4-0.3-2.2-0.4c-1.1-0.2-1.8-1.2-1.5-2.1s1.3-1.6,2.4-1.4
			c0.8,0.2,1.6,0.3,2.3,0.5c2.6,0.6,5.2,1,8,1.4c1.1,0.1,1.8,1,1.7,2C86.3,410.5,85.4,411.1,84.4,411.1z M158.7,409.1
			c-1,0-1.8-0.6-2-1.5c-0.2-1,0.5-1.9,1.6-2.1c3.5-0.5,7-1.2,10.3-1.8c1.1-0.2,2.1,0.4,2.4,1.3c0.2,1-0.4,1.9-1.5,2.1
			c-3.4,0.7-7,1.3-10.5,1.9C158.9,409.1,158.8,409.1,158.7,409.1z M63.7,406.9c-0.2,0-0.4,0-0.7-0.1c-4.1-1.3-7.1-2.9-9-4.8
			c-0.7-0.7-0.6-1.9,0.2-2.5c0.8-0.6,2.1-0.6,2.8,0.2c1.5,1.5,3.8,2.7,7.3,3.8c1,0.3,1.6,1.3,1.2,2.3
			C65.3,406.5,64.5,406.9,63.7,406.9z M179.4,404.9c-0.9,0-1.7-0.5-1.9-1.3c-0.3-0.9,0.3-1.9,1.4-2.2c1.9-0.5,3.8-1,5.7-1.6
			c1.5-0.4,2.9-0.9,4.3-1.3c1-0.3,2.2,0.2,2.5,1.1c0.4,0.9-0.2,1.9-1.2,2.3c-1.4,0.5-2.9,0.9-4.4,1.3c-1.9,0.6-3.9,1.1-5.8,1.6
			C179.8,404.8,179.6,404.9,179.4,404.9z M199.4,398.5c-0.8,0-1.5-0.4-1.8-1.1c-0.4-0.9,0-1.9,1-2.3c3.3-1.3,6.5-2.7,9.4-4.1
			c1-0.5,2.2-0.2,2.7,0.7c0.5,0.9,0.2,1.9-0.8,2.4c-3,1.5-6.3,2.9-9.7,4.2C200,398.4,199.7,398.5,199.4,398.5z M218,389.3
			c-0.6,0-1.2-0.3-1.6-0.8c-0.6-0.8-0.4-1.9,0.5-2.5c2.8-1.8,5.6-3.7,8.1-5.7c0.8-0.7,2.1-0.6,2.8,0.1c0.7,0.7,0.7,1.9-0.2,2.5
			c-2.7,2.1-5.5,4.2-8.5,6C218.8,389.2,218.4,389.3,218,389.3z M233.8,376.7c-0.5,0-0.9-0.1-1.3-0.4c-0.8-0.7-0.9-1.8-0.2-2.5
			c2.2-2.2,4.4-4.7,6.5-7.3c0.6-0.8,1.9-1,2.8-0.4c0.9,0.6,1.1,1.7,0.5,2.5c-2.1,2.7-4.4,5.2-6.7,7.6
			C234.9,376.5,234.4,376.7,233.8,376.7z M246.2,361.4c-0.3,0-0.7-0.1-1-0.2c-0.9-0.5-1.3-1.6-0.7-2.4c1.1-1.6,2.1-3.3,3.2-5.1
			c0.6-1,1.2-2.1,1.7-3.1c0.4-0.9,1.6-1.3,2.6-0.9c1,0.4,1.5,1.4,1,2.3c-0.6,1.1-1.2,2.3-1.8,3.4c-1.1,1.8-2.2,3.5-3.3,5.2
			C247.6,361.1,246.9,361.4,246.2,361.4z M254.7,344.1c-0.2,0-0.3,0-0.5-0.1c-1.1-0.2-1.7-1.2-1.4-2.2c0.9-2.9,1.5-5.9,1.9-9.1
			c0.1-1,1.1-1.7,2.2-1.5c1.1,0.1,1.9,1,1.7,2c-0.5,3.3-1.1,6.5-2,9.5C256.4,343.6,255.6,344.1,254.7,344.1z M193.4,327.9
			C193.3,327.9,193.3,327.9,193.4,327.9c-3.6,0-6.9-0.5-9.9-1.2c-0.4-0.1-0.8-0.2-1.3-0.3c-1-0.3-1.6-1.3-1.2-2.3
			c0.4-0.9,1.5-1.4,2.6-1.1c0.3,0.1,0.6,0.2,0.9,0.3c2.7,0.6,5.7,1,8.9,1.1c1.1,0,2,0.8,1.9,1.8
			C195.3,327.2,194.4,327.9,193.4,327.9z M204,327.4c-1,0-1.8-0.6-2-1.5c-0.2-1,0.6-1.9,1.7-2c3.3-0.4,6.7-1,10.2-1.9
			c1.1-0.3,2.2,0.3,2.4,1.3c0.3,0.9-0.3,1.9-1.4,2.2c-3.6,0.9-7.2,1.5-10.7,2C204.1,327.4,204.1,327.4,204,327.4z M257.4,325.9
			C257.4,325.9,257.4,325.9,257.4,325.9c-1.1,0-2-1.1-2-2.1l0-0.6c0-2.9-0.2-5.9-0.5-8.8c-0.1-1,0.7-1.9,1.8-2
			c1.1-0.1,2.1,0.6,2.2,1.6c0.4,3,0.5,6.1,0.5,9.1l0,0.8C259.4,324.8,258.5,325.9,257.4,325.9z M224.5,322.5c-0.8,0-1.6-0.4-1.9-1.1
			c-0.4-0.9,0.1-1.9,1.1-2.3c3.3-1.1,6.5-2.4,9.5-3.8c1-0.4,2.2-0.1,2.7,0.8c0.5,0.9,0.1,1.9-0.9,2.4c-3.2,1.4-6.5,2.8-9.9,3.9
			C225,322.5,224.7,322.5,224.5,322.5z M173.8,321.6c-0.4,0-0.9-0.1-1.2-0.4c-2.9-2-5.8-4.3-8.1-6.6c-0.7-0.7-0.7-1.8,0.1-2.5
			c0.8-0.7,2.1-0.6,2.8,0.1c2.2,2.1,4.9,4.3,7.6,6.2c0.9,0.6,1,1.7,0.4,2.5C174.9,321.4,174.3,321.6,173.8,321.6z M243.3,313.8
			c-0.6,0-1.2-0.2-1.6-0.7c-0.7-0.8-0.5-1.9,0.3-2.5c2.4-1.7,4.8-3.9,7-6.5c0.7-0.8,1.9-0.9,2.8-0.4c0.9,0.6,1.1,1.7,0.4,2.5
			c-2.4,2.8-5,5.3-7.7,7.2C244.2,313.6,243.7,313.8,243.3,313.8z M160.1,307.3c-0.8,0-1.5-0.4-1.8-1.1c-1.3-2.7-2.3-5.9-3.1-9.4
			c-0.2-1,0.5-1.9,1.6-2.1c1.1-0.2,2.1,0.4,2.3,1.4c0.7,3.3,1.7,6.2,2.9,8.7c0.4,0.9,0,1.9-1.1,2.3
			C160.6,307.3,160.4,307.3,160.1,307.3z M255.2,306.5c-0.9,0-1.7-0.6-1.9-1.4c-0.7-2.9-1.6-6-2.7-9c-0.3-0.9,0.3-1.9,1.3-2.2
			c1.1-0.3,2.2,0.2,2.5,1.2c0.1,0.3,0.2,0.6,0.3,0.9c1.3-2.2,2.6-4.6,3.9-7.3l0.4-0.8c0.4-0.9,1.6-1.3,2.6-0.9c1,0.4,1.5,1.4,1,2.3
			l-0.4,0.8c-1.4,3-2.8,5.5-4.2,7.9c-0.5,0.8-1.5,1.1-2.4,0.8c0.6,1.9,1.1,3.7,1.5,5.5c0.2,1-0.5,1.9-1.5,2.1
			C255.4,306.5,255.3,306.5,255.2,306.5z M155.9,288.9c-1.1,0-1.9-0.7-2-1.7c0-0.3,0-0.6,0-0.9c0-0.5,0-1,0-1.5c0-2.5,0.3-5,0.8-7.4
			c0.2-1,1.3-1.6,2.3-1.4c1.1,0.2,1.8,1.1,1.6,2.1c-0.5,2.1-0.7,4.4-0.7,6.7c0,0.5,0,0.9,0,1.4c0,0.3,0,0.6,0,0.9
			C158,288,157.1,288.8,155.9,288.9C156,288.9,155.9,288.9,155.9,288.9z M249,288.4c-0.8,0-1.5-0.4-1.9-1.1c-1.3-3-2.7-5.8-4.2-8.5
			c-0.5-0.9-0.1-1.9,0.9-2.4c1-0.4,2.2-0.1,2.7,0.8c1.6,2.8,3,5.8,4.4,8.8c0.4,0.9-0.1,1.9-1.1,2.3
			C249.4,288.3,249.2,288.4,249,288.4z M265.1,281.7c-0.3,0-0.5,0-0.8-0.2c-1-0.4-1.5-1.5-1-2.3l4.3-8.7c0.4-0.9,1.6-1.3,2.6-0.9
			c1,0.4,1.5,1.5,1,2.3l-4.3,8.7C266.6,281.3,265.9,281.7,265.1,281.7z M239.5,271.4c-0.7,0-1.3-0.3-1.7-0.8c-1.9-2.8-4-5.3-6.1-7.5
			c-0.7-0.7-0.6-1.9,0.2-2.5c0.8-0.6,2.1-0.5,2.8,0.2c2.2,2.3,4.4,5,6.4,7.9c0.6,0.8,0.3,1.9-0.6,2.5
			C240.2,271.3,239.8,271.4,239.5,271.4z M160.2,270.6c-0.3,0-0.7-0.1-1-0.2c-1-0.5-1.3-1.6-0.8-2.4c1.8-2.9,4.1-5.5,6.8-7.9
			c0.8-0.7,2.1-0.7,2.8,0c0.8,0.7,0.7,1.8-0.1,2.5c-2.5,2.1-4.5,4.5-6.1,7.1C161.6,270.2,160.9,270.6,160.2,270.6z M273.8,264.3
			c-0.3,0-0.5,0-0.8-0.1c-1-0.4-1.5-1.4-1-2.3c1.6-3.2,2.9-6,4.2-8.7c0.4-0.9,1.6-1.3,2.6-1c1,0.4,1.5,1.4,1.1,2.3
			c-1.3,2.7-2.6,5.5-4.2,8.7C275.3,263.9,274.5,264.3,273.8,264.3z M175.2,257.5c-0.7,0-1.4-0.3-1.7-0.9c-0.5-0.9-0.2-1.9,0.7-2.4
			c3.1-1.6,6.5-2.9,10.1-4c1-0.3,2.2,0.2,2.5,1.1s-0.2,1.9-1.3,2.2c-3.3,1-6.5,2.2-9.4,3.7C175.9,257.4,175.5,257.5,175.2,257.5z
			 M225.6,257.1c-0.4,0-0.9-0.1-1.2-0.4c-2.8-2-5.8-3.4-8.7-4.3c-1-0.3-1.6-1.3-1.2-2.3c0.4-0.9,1.5-1.4,2.5-1.1
			c3.3,1,6.6,2.7,9.8,4.9c0.9,0.6,1,1.7,0.3,2.5C226.8,256.9,226.2,257.1,225.6,257.1z M195.3,251.5c-1,0-1.8-0.6-2-1.5
			c-0.2-1,0.6-1.9,1.7-2c3.7-0.5,7.4-0.6,11-0.5c1.1,0,2,0.9,1.9,1.8c0,1-1,1.7-2.1,1.7c-3.3-0.1-6.8,0.1-10.3,0.5
			C195.5,251.5,195.4,251.5,195.3,251.5z M282.2,246.9c-0.3,0-0.6-0.1-0.8-0.2c-1-0.4-1.4-1.5-1-2.4c1.5-2.9,3-5.8,4.6-8.6
			c0.5-0.9,1.7-1.3,2.7-0.8s1.4,1.5,0.9,2.4c-1.6,2.8-3.1,5.7-4.5,8.5C283.7,246.5,283,246.9,282.2,246.9z M291.5,229.9
			c-0.3,0-0.6-0.1-0.9-0.2c-1-0.5-1.4-1.5-0.9-2.4c1.7-2.9,3.4-5.7,5.1-8.4c0.5-0.9,1.7-1.2,2.7-0.7c1,0.5,1.3,1.6,0.8,2.4
			c-1.7,2.7-3.4,5.5-5,8.3C293,229.5,292.3,229.9,291.5,229.9z M301.9,213.3c-0.4,0-0.7-0.1-1-0.3c-0.9-0.5-1.3-1.6-0.7-2.4
			c1.9-2.8,3.8-5.6,5.7-8.1c0.6-0.8,1.8-1,2.8-0.5c0.9,0.5,1.2,1.6,0.6,2.5c-1.8,2.5-3.7,5.2-5.6,8
			C303.2,213,302.6,213.3,301.9,213.3z M313.7,197.5c-0.4,0-0.8-0.1-1.2-0.4c-0.9-0.6-1.1-1.7-0.4-2.5c2.3-2.8,4.6-5.3,6.9-7.5
			c0.7-0.7,2-0.8,2.8-0.1c0.8,0.7,0.9,1.8,0.1,2.5c-2.1,2.1-4.4,4.5-6.6,7.2C314.9,197.2,314.3,197.5,313.7,197.5z M328.1,183.6
			c-0.6,0-1.2-0.2-1.6-0.7c-0.7-0.8-0.6-1.9,0.3-2.5c3.4-2.4,6.7-4.1,9.7-5.1c1-0.3,2.2,0.2,2.5,1.1s-0.2,1.9-1.3,2.3
			c-2.6,0.8-5.5,2.3-8.5,4.5C329,183.4,328.5,183.6,328.1,183.6z"/>
	</g>
	<g>
		<path fill="#EF5816" d="M382.9,23.8c-1.6,0.1-3.3,0.3-4.8,0.8c-7.6,2.2-12.7,8.3-12.3,14.9c0.2,4,2.2,7.7,5.8,10.3
			c3.5,2.6,8,3.9,12.8,3.7c1.6-0.1,3.3-0.3,4.8-0.8c7.6-2.2,12.7-8.3,12.3-14.9c-0.2-4-2.2-7.7-5.8-10.3
			C392.2,24.9,387.6,23.6,382.9,23.8z M399.4,38c0.3,5.7-4.2,10.9-10.8,12.8c-1.4,0.4-2.9,0.6-4.4,0.7c-4.2,0.2-8.3-1-11.4-3.3
			c-3-2.3-4.8-5.4-5-8.7c-0.3-5.7,4.2-10.9,10.8-12.8c1.4-0.4,2.9-0.6,4.4-0.7c4.2-0.2,8.3,1,11.4,3.3
			C397.4,31.5,399.2,34.6,399.4,38z"/>
		<path fill="#EF5816" d="M428.2,24.1c-0.7-2.2-2.6-4.7-3.7-6.1c-0.4-0.5-0.7-0.9-0.8-1c0,0-0.1-0.1-0.1-0.1
			c-0.2-0.2-0.4-0.4-0.7-0.6C413.9,8.2,405,4.1,397,2.5c-0.7-0.2-1.5-0.3-2.2-0.4c-7.7-1.2-14.7-0.3-20.2,1.3
			c-9.8,2.8-16,7.7-16.1,7.8c-0.2,0.1-0.3,0.3-0.4,0.5c-0.5,0.3-1.9,1.4-3.9,3.1c-0.4,0.4-0.9,0.8-1.4,1.3
			c-4.1,4-9.4,10.5-12.5,19.7c-0.2,0.6-0.4,1.2-0.6,1.8c-1.6,5.4-2.4,11.7-1.7,18.9c0.1,0.6,0.1,1.3,0.2,2
			c0.8,5.7,2.4,11.9,5.4,18.6c0,0.1,0.1,0.1,0.1,0.2c0.2,0.4,1.9,3.1,3.8,5.1c0.5,0.5,1,1,1.6,1.4c0,0,0,0,0.1,0.1
			c0.8,0.7,3.4,2.8,7.9,2.7c7.9-0.2,17.3-6.7,27.7-19.3c0.1-0.1,1.3-1.5,3.6-3.6c1.8,1.8,6.1,7.3,6.3,17.9
			c-0.1,1.3-1.2,12.7,5.4,19.9c0.2,0.2,5.1,5.2,14.3,2.6c1.3-0.4,2.7-0.9,4.1-1.6c0.3-0.2,8.1-4,9.9-12.7c1.6-7.6-1.8-16.3-9.9-25.8
			c-0.2-0.3-5.5-6.6-12.2-12.2c12.9-5.7,20.5-12.1,22.6-19C430.2,28.2,428.7,25,428.2,24.1z M396.7,6.4C403.9,8,411.9,11.8,420,19
			c-3.2,2.3-7,3.4-11,2.7c-1.1-0.2-2.2-0.5-3.3-1c-3.7-1.6-6.6-4.8-8.1-8.8C397.1,10.2,396.7,8.3,396.7,6.4z M347,29.8
			c2.3-4.1,4.9-7.4,7.3-9.8c0.5,2.6,0.3,5.3-0.7,7.9c-1.7,4.3-5.3,7.2-9.3,7.9C345.1,33.8,345.9,31.8,347,29.8z M347.2,75.4
			c-2.7-6.3-4.4-12.3-5.2-18.1c0.3,0,0.6-0.1,1-0.1c3.4-0.2,6.6,1,9.1,3.3c2.5,2.3,4,5.5,4.1,8.9c0.2,4.4-1.7,8.4-5,10.9
			C349.9,79.5,348.1,76.9,347.2,75.4z M415.4,66.4c7.3,8.6,10.4,16.1,9.1,22.4c-1.4,6.8-7.7,9.9-7.7,10c-1.2,0.6-2.3,1-3.5,1.3
			c-6.8,1.9-10.2-1.4-10.3-1.5c-5.6-6.1-4.4-16.7-4.4-16.8c0-0.1,0-0.2,0-0.3c-0.2-11.7-4.9-18.1-7.3-20.6c3.5-2.9,7.2-5.4,10.9-7.4
			C409.2,59,415.1,66.1,415.4,66.4z M425.2,31.5c-1.1,3.7-5.2,9.5-18.6,15.7c-0.2,0-0.3,0.1-0.5,0.1c-1.4,0.6-2.8,1.2-4.2,1.9
			l-0.5,0.2c-0.2,0.1-0.4,0.2-0.5,0.3c-11.3,6-18.7,14.4-19,14.8c-8.1,9.8-15.3,15.6-21.5,17.4c-1.1,0.3-2.2,0.5-3.2,0.5
			c-2.1,0.1-3.5-0.5-4.3-1c3.5-2.9,5.6-7.3,5.3-12.2c-0.2-3.9-1.9-7.6-4.7-10.2c-2.9-2.7-6.6-4-10.5-3.8c-0.4,0-0.7,0.1-1.1,0.1
			c-0.6-6.2,0-12.1,1.8-17.7c5-0.5,9.5-4,11.6-9.2c1.3-3.2,1.5-6.8,0.6-10c2.6-2.4,4.5-3.7,4.5-3.7c0.2-0.2,0.5-0.4,0.6-0.6l0,0
			c0.1,0,5.6-4.5,14.6-7.1c5.2-1.5,11.6-2.3,18.9-1.1c0,2.4,0.4,4.7,1.2,6.9c1.7,4.7,5,8.3,9.3,10.1c1.2,0.5,2.5,0.9,3.8,1.1
			c4.7,0.8,9.3-0.6,13-3.4c1.1,1.3,2.5,3.3,2.9,4.6c0.1,0.2,0.2,0.4,0.3,0.6C424.8,26,426.2,28.2,425.2,31.5z"/>
	</g>
	
		<line fill="none" stroke="#EF5816" stroke-width="3" stroke-linecap="round" stroke-linejoin="round" stroke-miterlimit="10" x1="-1.8" y1="508.4" x2="633.2" y2="508.4"/>
	<path fill="#FF9769" d="M142.6,64.1c0-7.9-6.3-14.3-14.2-14.3c-1.6,0-3,0.3-4.4,0.7c-2.3-8-9.7-13.8-18.4-13.8
		c-8.6,0-15.9,5.7-18.3,13.6c-1.2-0.3-2.4-0.5-3.7-0.5c-7.9,0-14.2,6.4-14.2,14.3c0,7.8,5.9,14.1,13.9,14.3v0.5h47v-0.6
		C137.2,77.3,142.6,71.3,142.6,64.1z"/>
	<path fill="#EF5816" d="M211.6,80.4c0-9.8-7.8-17.7-17.5-17.7c-1.9,0-3.7,0.3-5.4,0.9c-2.9-9.8-11.9-17-22.7-17
		c-10.7,0-19.7,7.1-22.7,16.8c-1.5-0.4-3-0.6-4.6-0.6c-9.8,0-17.6,7.9-17.6,17.7c0,9.6,8.2,17.4,17.2,17.6v-0.1h58v-0.1
		C205.2,96.6,211.6,89.3,211.6,80.4z"/>
	<path fill="#FF9769" d="M547.4,241.5c0-6.3-4.9-11.4-11.2-11.4c-1.2,0-2.3,0.2-3.5,0.6c-1.9-6.4-7.7-11-14.7-11
		c-6.9,0-12.7,4.6-14.6,10.8c-0.9-0.3-1.9-0.4-2.9-0.4c-6.3,0-11.4,5.1-11.4,11.4c0,6.2,5.2,11.2,11.2,11.4v0h37v-0.1
		C543.2,252,547.4,247.3,547.4,241.5z"/>
	<path fill="none" stroke="#EF5816" stroke-width="3" stroke-miterlimit="10" d="M496.6,499c0-4.4-3-7.9-7.4-7.9
		c-0.9,0-1.4,0.1-2.2,0.4c-1.3-4.4-5.2-7.6-10-7.6c-4.8,0-8.7,3.2-10.1,7.5c-0.7-0.2-1.3-0.3-2-0.3c-4.4,0-8.4,3.5-8.4,7.9
		c0,4.3,2.2,7.8,7.2,7.9v1.5h25v-1.6C492.7,506.3,496.6,503,496.6,499z"/>
	<path fill="none" stroke="#EF5816" stroke-width="2" stroke-miterlimit="10" d="M111.9,500.8c0-3.6-2.3-6.4-5.9-6.4
		c-0.7,0-1.1,0.1-1.7,0.3c-1.1-3.6-4.2-6.2-8.2-6.2c-3.9,0-7.1,2.6-8.2,6.1c-0.5-0.1-1.1-0.2-1.6-0.2c-3.6,0-6.9,2.9-6.9,6.4
		c0,3.5,1.8,6.3,5.8,6.4v1.6h20v-1.7C108.2,506.8,111.9,504.1,111.9,500.8z"/>
	<circle fill="none" stroke="#EF5816" stroke-width="3" stroke-miterlimit="10" cx="508.2" cy="450.9" r="27"/>
	<line fill="none" stroke="#EF5816" stroke-width="3" stroke-miterlimit="10" x1="508.7" y1="507.9" x2="508.7" y2="459.9"/>
	<path fill="none" stroke="#EF5816" stroke-width="3" stroke-miterlimit="10" d="M508.9,461.2l-10.3-10.7L508.9,461.2z"/>
	<line fill="none" stroke="#EF5816" stroke-width="3.437" stroke-miterlimit="10" x1="508.9" y1="461.2" x2="518.9" y2="449.6"/>
	<path fill="#EF5816" d="M89.7,461.9c0-12.7-10.3-23-23-23s-23,10.3-23,23c0,12.5,10,22.7,22.5,23v23h2v-23.1
		C80.2,484.1,89.7,474.1,89.7,461.9z M68.2,482.4v-11.3l0.1,0.1l8.1-9.4l-2.1-1.8l-7.2,8.4l-7.3-7.5l-1.7,1.7l8.2,8.4v11.5
		c-11.1-0.3-20.1-9.4-20.1-20.6c0-11.3,9.2-20.6,20.6-20.6s20.6,9.2,20.6,20.6C87.3,472.7,78.9,481.6,68.2,482.4z"/>
	<g>
		<path fill="#EF5816" d="M560.2,484.4c-13,0-23.5-10.5-23.5-23.5s10.5-23.5,23.5-23.5s23.5,10.5,23.5,23.5S573.2,484.4,560.2,484.4
			z M560.2,439.9c-11.6,0-21,9.4-21,21s9.4,21,21,21s21-9.4,21-21S571.8,439.9,560.2,439.9z"/>
	</g>
	<g>
		<rect x="559.2" y="467.9" fill="#EF5816" width="3" height="40"/>
	</g>
	<g>
		
			<rect x="550.4" y="463.8" transform="matrix(0.6958 0.7183 -0.7183 0.6958 503.314 -258.2501)" fill="#EF5816" width="12.2" height="2.5"/>
	</g>
	<g>
		
			<rect x="563.5" y="458.3" transform="matrix(0.7591 0.6509 -0.6509 0.7591 438.4941 -255.8015)" fill="#EF5816" width="2.8" height="12.7"/>
	</g>
</g>
</svg>
