<?xml version="1.0" encoding="utf-8"?>
<!-- Generator: Adobe Illustrator 16.0.0, SVG Export Plug-In . SVG Version: 6.00 Build 0)  -->
<!DOCTYPE svg PUBLIC "-//W3C//DTD SVG 1.1//EN" "http://www.w3.org/Graphics/SVG/1.1/DTD/svg11.dtd">
<svg version="1.1" id="Calque_1" xmlns="http://www.w3.org/2000/svg" xmlns:xlink="http://www.w3.org/1999/xlink" x="0px" y="0px"
	 width="87.757px" height="76.001px" viewBox="0 0 87.757 76.001" enable-background="new 0 0 87.757 76.001" xml:space="preserve">
<g>
	<g id="cs_hexagon">
		<path fill="#FFFFFF" d="M65.817,76.001H21.939L0,38.001L21.939,0h43.878l21.939,38.001L65.817,76.001z M23.672,73.001h40.413
			l20.207-35L64.085,3H23.672L3.465,38.001L23.672,73.001z"/>
	</g>
	<path id="cs_spot" fill="#FFFFFF" d="M23.743,40.882c-3.616,1.438-5.569,5.066-3.813,9.48c1.754,4.416,12.898,13.367,12.898,13.367
		s1.954-14.16,0.199-18.574S27.361,39.444,23.743,40.882z M26.967,48.987c-1.2,0.479-2.56-0.109-3.037-1.311
		c-0.479-1.199,0.109-2.559,1.309-3.035c1.201-0.479,2.561,0.107,3.039,1.309C28.754,47.151,28.168,48.511,26.967,48.987z"/>
	<path fill="#FFFFFF" d="M68.48,32.572c0.038-7.884-9.854-19.729-22.044-19.73c-12.19,0-22.065,11.526-22.103,19.409
		c-0.029,6.218,6.158,7.252,14.75,7.418c-0.048,7.5-2.836,15.305-2.836,17.453c0,6.551,4.283,8.065,9.566,8.065
		c5.281,0,9.564-1.369,9.564-7.92c0-2.146-2.781-10.282-2.834-17.282c-0.05,0-0.104,0-0.154,0
		C61.67,38.985,68.449,39.119,68.48,32.572z"/>
</g>
</svg>
