<?xml version="1.0" encoding="utf-8"?>
<!-- Generator: Adobe Illustrator 16.0.0, SVG Export Plug-In . SVG Version: 6.00 Build 0)  -->
<!DOCTYPE svg PUBLIC "-//W3C//DTD SVG 1.1//EN" "http://www.w3.org/Graphics/SVG/1.1/DTD/svg11.dtd">
<svg version="1.1" id="cs_logo" xmlns="http://www.w3.org/2000/svg" xmlns:xlink="http://www.w3.org/1999/xlink" x="0px"
	 y="0px" width="233.803px" height="73px" viewBox="0 0 233.803 73" enable-background="new 0 0 233.803 73" xml:space="preserve">
<polygon id="cs_hexagon" fill="#F37A3A" points="21.073,0 0,36.5 21.073,73 63.219,73 84.292,36.5 63.219,0 "/>
<g id="cs_brand">
	<path id="cs_c" fill="#F37A3A" d="M107.494,9.441c1.107,0,2.143,0.155,3.106,0.464s1.928,0.69,2.893,1.143l2.16-5.552
		c-2.572-1.226-5.267-1.839-8.087-1.839c-2.583,0-4.83,0.55-6.739,1.651c-1.909,1.101-3.374,2.675-4.391,4.722
		c-1.017,2.046-1.527,4.42-1.527,7.122c0,4.321,1.051,7.622,3.151,9.907c2.101,2.285,5.121,3.427,9.06,3.427
		c2.749,0,5.212-0.481,7.39-1.445v-5.963c-1.096,0.453-2.184,0.839-3.267,1.16c-1.083,0.322-2.202,0.482-3.356,0.482
		c-3.82,0-5.73-2.511-5.73-7.533c0-2.416,0.47-4.311,1.411-5.685C104.507,10.129,105.815,9.441,107.494,9.441z"/>
	<path id="cs_h" fill="#F37A3A" d="M131.771,9.549c-1.214,0-2.279,0.214-3.195,0.642s-1.708,1.167-2.375,2.214h-0.32
		c0.19-2.286,0.285-4.321,0.285-6.105V2.355h-6.979V30.13h6.979v-8.89c0-2.225,0.271-3.817,0.813-4.774s1.383-1.438,2.526-1.438
		c1.606,0,2.409,1.358,2.409,4.071V30.13h7.015V16.975c0-2.345-0.627-4.167-1.884-5.471C135.79,10.2,134.031,9.549,131.771,9.549z"
		/>
	<path id="cs_a" fill="#F37A3A" d="M153.548,9.549c-3.595,0-6.569,0.607-8.925,1.82l2.017,4.605c2.272-1,4.146-1.5,5.622-1.5
		c1.643,0,2.464,0.833,2.464,2.5v0.285l-3.374,0.107c-2.844,0.131-5.017,0.723-6.516,1.776c-1.5,1.054-2.249,2.657-2.249,4.812
		c0,2.071,0.547,3.677,1.641,4.819c1.096,1.143,2.595,1.713,4.499,1.713c1.547,0,2.809-0.214,3.786-0.642
		c0.974-0.428,1.933-1.226,2.874-2.393h0.143l1.339,2.678h4.836V16.867c0-2.308-0.709-4.105-2.132-5.391
		C158.151,10.191,156.142,9.549,153.548,9.549z M154.762,22.669c0,0.856-0.3,1.552-0.902,2.087c-0.6,0.535-1.323,0.804-2.168,0.804
		c-1.321,0-1.982-0.619-1.982-1.856c0-1.606,1.148-2.452,3.444-2.535l1.607-0.071V22.669z"/>
	<path id="cs_m" fill="#F37A3A" d="M191.248,9.549c-1.225,0-2.348,0.235-3.366,0.705c-1.017,0.469-1.811,1.122-2.382,1.954
		h-0.555c-1.178-1.773-3.225-2.659-6.14-2.659c-1.297,0-2.454,0.243-3.472,0.731c-1.017,0.488-1.793,1.196-2.331,2.125h-0.41
		l-0.875-2.5h-5.265V30.13h6.979v-8.854c0-2.214,0.251-3.808,0.749-4.784c0.5-0.976,1.297-1.464,2.394-1.464
		c0.796,0,1.374,0.343,1.731,1.027c0.356,0.684,0.535,1.71,0.535,3.08V30.13h6.998v-9.425c0-1.952,0.249-3.385,0.749-4.302
		c0.5-0.917,1.286-1.375,2.356-1.375c0.81,0,1.402,0.343,1.776,1.027c0.376,0.684,0.563,1.71,0.563,3.08V30.13h6.98V16.975
		c0-2.5-0.572-4.362-1.715-5.587C195.408,10.162,193.64,9.549,191.248,9.549z"/>
	<path id="cs_p1" fill="#F37A3A" d="M215.364,9.549c-2.284,0-4.076,0.976-5.373,2.927h-0.322l-0.98-2.57h-5.677v29.006h6.979
		v-8.122c0-0.345-0.106-1.225-0.322-2.642h0.322c0.798,0.881,1.602,1.492,2.411,1.831c0.81,0.339,1.725,0.508,2.748,0.508
		c2.274,0,4.074-0.937,5.401-2.811c1.326-1.874,1.99-4.442,1.99-7.702c0-3.237-0.637-5.785-1.91-7.641
		C219.357,10.476,217.603,9.549,215.364,9.549z M214.829,23.713c-0.404,0.768-1.053,1.152-1.945,1.152c-1,0-1.733-0.387-2.195-1.161
		c-0.465-0.774-0.698-2.029-0.698-3.767v-0.554c0.037-1.439,0.259-2.525,0.67-3.257c0.41-0.732,1.127-1.099,2.15-1.099
		c0.941,0,1.613,0.378,2.017,1.134c0.406,0.756,0.607,2.002,0.607,3.739C215.436,21.675,215.234,22.946,214.829,23.713z"/>
	<g id="cs_i">
		<rect x="226.558" y="9.906" fill="#F37A3A" width="6.979" height="20.224"/>
		<path fill="#F37A3A" d="M230.074,7.941c2.485,0,3.729-1.023,3.729-3.07c0-1.023-0.296-1.797-0.892-2.321
			c-0.594-0.523-1.541-0.785-2.836-0.785c-1.298,0-2.239,0.256-2.821,0.768c-0.584,0.512-0.875,1.292-0.875,2.338
			C226.379,6.918,227.61,7.941,230.074,7.941z"/>
	</g>
	<path id="cs_s" fill="#F37A3A" d="M102.71,42.102c0.416-0.32,1.082-0.481,1.999-0.481c1.773,0,3.88,0.56,6.319,1.678
		l2.161-5.445c-2.809-1.25-5.563-1.874-8.265-1.874c-3.058,0-5.462,0.672-7.212,2.017s-2.624,3.219-2.624,5.622
		c0,1.286,0.205,2.398,0.616,3.338c0.411,0.941,1.042,1.774,1.893,2.5c0.851,0.725,2.127,1.476,3.829,2.25
		c1.88,0.845,3.037,1.404,3.472,1.678c0.435,0.273,0.75,0.544,0.947,0.813c0.196,0.267,0.294,0.581,0.294,0.937
		c0,0.571-0.244,1.038-0.731,1.401c-0.488,0.364-1.256,0.544-2.303,0.544c-1.213,0-2.546-0.192-3.999-0.579
		c-1.452-0.387-2.85-0.925-4.195-1.617v6.285c1.274,0.606,2.5,1.031,3.677,1.276c1.178,0.243,2.637,0.366,4.374,0.366
		c2.083,0,3.897-0.348,5.445-1.044c1.547-0.697,2.731-1.672,3.553-2.929c0.821-1.254,1.231-2.691,1.231-4.311
		c0-1.76-0.438-3.222-1.312-4.382c-0.875-1.16-2.437-2.246-4.687-3.257c-2.344-1.071-3.782-1.81-4.311-2.214
		c-0.529-0.405-0.793-0.862-0.793-1.374C102.085,42.822,102.293,42.423,102.71,42.102z"/>
	<path id="cs_p2" fill="#F37A3A" d="M129.165,41.87c-2.285,0-4.075,0.976-5.373,2.927h-0.322l-0.982-2.57h-5.676v29.007h6.979
		v-8.123c0-0.345-0.107-1.225-0.322-2.642h0.322c0.798,0.881,1.601,1.491,2.409,1.83c0.81,0.339,1.726,0.509,2.75,0.509
		c2.272,0,4.072-0.938,5.398-2.812c1.327-1.874,1.992-4.442,1.992-7.702c0-3.236-0.637-5.784-1.912-7.64
		C133.157,42.798,131.401,41.87,129.165,41.87z M128.629,56.035c-0.405,0.767-1.054,1.151-1.946,1.151c-1,0-1.731-0.386-2.196-1.161
		c-0.463-0.773-0.696-2.029-0.696-3.766v-0.554c0.035-1.44,0.259-2.526,0.669-3.258c0.411-0.732,1.128-1.098,2.151-1.098
		c0.94,0,1.612,0.377,2.017,1.134c0.404,0.754,0.607,2.001,0.607,3.739C129.236,53.997,129.033,55.267,128.629,56.035z"/>
	<path id="cs_o" fill="#F37A3A" d="M154.869,43.138c-1.523-0.845-3.279-1.268-5.267-1.268c-3.213,0-5.708,0.914-7.488,2.741
		c-1.778,1.826-2.668,4.387-2.668,7.684c0,3.225,0.908,5.783,2.723,7.676c1.813,1.893,4.256,2.838,7.328,2.838
		c3.201,0,5.691-0.925,7.471-2.776c1.778-1.851,2.668-4.43,2.668-7.738c0-2.106-0.414-3.948-1.241-5.525
		C157.566,45.193,156.393,43.982,154.869,43.138z M151.86,56.267c-0.445,0.911-1.209,1.366-2.293,1.366
		c-1.094,0-1.874-0.456-2.339-1.366c-0.464-0.911-0.696-2.235-0.696-3.972c0-1.738,0.231-3.044,0.696-3.918
		c0.465-0.875,1.233-1.312,2.303-1.312c1.094,0,1.868,0.44,2.321,1.321c0.451,0.88,0.678,2.184,0.678,3.909
		C152.531,54.032,152.307,55.356,151.86,56.267z"/>
	<path id="cs_t" fill="#F37A3A" d="M171.63,55.33v-7.873h4.963v-5.23h-4.963v-4.052h-4.569l-1.804,4.248l-3.105,2.196v2.838
		h2.444v8.337c0,2.38,0.52,4.144,1.555,5.293c1.035,1.147,2.725,1.722,5.069,1.722c1.143,0,2.139-0.086,2.989-0.26
		c0.851-0.172,1.747-0.461,2.688-0.865v-5.088c-1.31,0.464-2.435,0.696-3.374,0.696C172.261,57.293,171.63,56.639,171.63,55.33z"/>
</g>
<path id="cs_spot" fill="#FFFFFF" d="M22.011,39.382c-3.617,1.438-5.569,5.067-3.814,9.481
	c1.754,4.415,12.899,13.367,12.899,13.367s1.954-14.161,0.199-18.575S25.629,37.944,22.011,39.382z M25.235,47.488
	c-1.201,0.478-2.56-0.109-3.038-1.31c-0.478-1.2,0.109-2.559,1.309-3.036c1.201-0.478,2.56,0.108,3.039,1.308
	C27.021,45.651,26.435,47.011,25.235,47.488z"/>
<g id="cs_champi">
	<path id="cs_tete" fill="#FFFFFF" d="M66.748,30.925c-0.037,7.883-9.853,7.257-22.044,7.257
		c-12.19,0-22.139,0.417-22.102-7.467c0.037-7.883,9.911-19.446,22.102-19.446C56.895,11.27,66.786,23.041,66.748,30.925z"/>
	<linearGradient id="cs_pied_1_" gradientUnits="userSpaceOnUse" x1="44.0815" y1="50.9214" x2="44.0815" y2="38.1736">
		<stop  offset="0" style="stop-color:#FFFFFF"/>
		<stop  offset="0.2742" style="stop-color:#FCFCFC"/>
		<stop  offset="0.4881" style="stop-color:#F2F2F2"/>
		<stop  offset="0.6816" style="stop-color:#E2E2E2"/>
		<stop  offset="0.862" style="stop-color:#CACACA"/>
		<stop  offset="1" style="stop-color:#B3B3B3"/>
	</linearGradient>
	<path id="cs_pied" fill="url(#cs_pied_1_)" d="M44.704,38.183c-2.576,0-5.049,0.018-7.352-0.027
		c-0.045,7.502-2.836,15.315-2.836,17.465c0,6.551,4.283,8.066,9.566,8.066c5.281,0,9.564-1.515,9.564-8.066
		c0-2.146-2.781-9.939-2.834-17.431C48.874,38.201,46.827,38.183,44.704,38.183z"/>
</g>
</svg>
