<?xml version="1.0" encoding="utf-8"?>
<!-- Generator: Adobe Illustrator 16.0.0, SVG Export Plug-In . SVG Version: 6.00 Build 0)  -->
<!DOCTYPE svg PUBLIC "-//W3C//DTD SVG 1.1//EN" "http://www.w3.org/Graphics/SVG/1.1/DTD/svg11.dtd">
<svg version="1.1" id="cs_logo" xmlns="http://www.w3.org/2000/svg" xmlns:xlink="http://www.w3.org/1999/xlink" x="0px" y="0px"
	 width="105.702px" height="152.854px" viewBox="60.194 -0.643 105.702 152.854"
	 enable-background="new 60.194 -0.643 105.702 152.854" xml:space="preserve">
<g>
	<g id="cs_brand">
		<path id="cs_c" fill="#FFFFFF" d="M69.772,105.186c0.842,0,1.631,0.118,2.364,0.354c0.733,0.234,1.467,0.524,2.202,0.869
			l1.644-4.226c-1.958-0.933-4.009-1.398-6.155-1.398c-1.965,0-3.676,0.417-5.128,1.256c-1.453,0.838-2.568,2.035-3.342,3.594
			c-0.774,1.557-1.162,3.364-1.162,5.42c0,3.288,0.8,5.8,2.397,7.539c1.6,1.738,3.897,2.608,6.896,2.608
			c2.092,0,3.966-0.366,5.624-1.101v-4.538c-0.833,0.346-1.662,0.64-2.486,0.884c-0.824,0.245-1.676,0.367-2.554,0.367
			c-2.907,0-4.361-1.912-4.361-5.733c0-1.839,0.357-3.28,1.073-4.327C67.499,105.709,68.494,105.186,69.772,105.186z"/>
		<path id="cs_h" fill="#FFFFFF" d="M88.247,105.268c-0.923,0-1.734,0.164-2.431,0.489s-1.3,0.888-1.808,1.686h-0.244
			c0.145-1.74,0.217-3.289,0.217-4.646v-3.003H78.67v21.139h5.312v-6.767c0-1.692,0.206-2.904,0.619-3.633
			c0.412-0.728,1.053-1.095,1.922-1.095c1.222,0,1.834,1.034,1.834,3.099v8.396h5.338V110.92c0-1.784-0.477-3.172-1.434-4.164
			C91.306,105.765,89.967,105.268,88.247,105.268z"/>
		<path id="cs_a" fill="#FFFFFF" d="M104.82,105.268c-2.736,0-4.999,0.463-6.792,1.386l1.535,3.505
			c1.729-0.762,3.155-1.142,4.278-1.142c1.251,0,1.875,0.634,1.875,1.902v0.217l-2.567,0.082c-2.165,0.1-3.818,0.55-4.959,1.352
			s-1.711,2.021-1.711,3.662c0,1.575,0.416,2.797,1.249,3.667c0.834,0.869,1.976,1.304,3.425,1.304c1.177,0,2.137-0.163,2.88-0.489
			c0.742-0.325,1.472-0.932,2.188-1.821h0.109l1.019,2.038h3.68v-10.093c0-1.756-0.54-3.123-1.622-4.103
			C108.324,105.757,106.794,105.268,104.82,105.268z M105.744,115.253c0,0.651-0.229,1.182-0.686,1.588
			c-0.457,0.407-1.007,0.612-1.65,0.612c-1.006,0-1.509-0.471-1.509-1.412c0-1.223,0.874-1.867,2.621-1.93l1.223-0.054
			L105.744,115.253L105.744,115.253z"/>
		<path id="cs_m" fill="#FFFFFF" d="M133.511,105.268c-0.933,0-1.787,0.18-2.562,0.537c-0.773,0.357-1.378,0.854-1.813,1.487h-0.423
			c-0.896-1.35-2.454-2.024-4.672-2.024c-0.988,0-1.868,0.186-2.643,0.558c-0.774,0.371-1.365,0.909-1.773,1.617h-0.313
			l-0.666-1.902h-4.007v15.392h5.312v-6.739c0-1.685,0.191-2.897,0.57-3.641c0.381-0.742,0.986-1.114,1.821-1.114
			c0.606,0,1.046,0.261,1.317,0.782c0.271,0.521,0.407,1.301,0.407,2.343v8.369h5.325v-7.174c0-1.484,0.189-2.576,0.57-3.273
			c0.381-0.698,0.979-1.047,1.793-1.047c0.616,0,1.066,0.261,1.352,0.782c0.286,0.521,0.429,1.301,0.429,2.343v8.369h5.313V110.92
			c0-1.902-0.436-3.32-1.306-4.252C136.677,105.734,135.331,105.268,133.511,105.268z"/>
		<path id="cs_p1" fill="#FFFFFF" d="M151.864,105.268c-1.738,0-3.103,0.743-4.089,2.229h-0.245l-0.746-1.956h-4.32v22.074h5.312
			v-6.181c0-0.263-0.081-0.933-0.245-2.011h0.245c0.607,0.67,1.219,1.136,1.834,1.394c0.617,0.258,1.313,0.386,2.092,0.386
			c1.73,0,3.101-0.712,4.11-2.14c1.009-1.425,1.515-3.38,1.515-5.86c0-2.464-0.485-4.402-1.454-5.814
			C154.902,105.974,153.567,105.268,151.864,105.268z M151.457,116.047c-0.308,0.585-0.801,0.877-1.48,0.877
			c-0.761,0-1.318-0.294-1.671-0.883c-0.354-0.589-0.53-1.544-0.53-2.867v-0.422c0.028-1.095,0.196-1.922,0.51-2.479
			c0.312-0.557,0.857-0.836,1.637-0.836c0.716,0,1.227,0.288,1.534,0.863c0.309,0.575,0.462,1.523,0.462,2.845
			C151.919,114.497,151.765,115.464,151.457,116.047z"/>
		<g id="cs_i">
			<rect x="160.383" y="105.54" fill="#FFFFFF" width="5.312" height="15.392"/>
			<path fill="#FFFFFF" d="M163.059,104.045c1.892,0,2.838-0.779,2.838-2.337c0-0.778-0.226-1.367-0.679-1.766
				c-0.451-0.398-1.173-0.598-2.158-0.598c-0.988,0-1.704,0.194-2.146,0.584c-0.445,0.39-0.666,0.984-0.666,1.779
				C160.247,103.266,161.184,104.045,163.059,104.045z"/>
		</g>
		<path id="cs_s" fill="#FFFFFF" d="M66.131,130.041c0.317-0.242,0.824-0.365,1.521-0.365c1.349,0,2.953,0.427,4.809,1.276
			l1.644-4.144c-2.138-0.95-4.233-1.426-6.29-1.426c-2.327,0-4.157,0.512-5.489,1.535c-1.332,1.023-1.997,2.45-1.997,4.278
			c0,0.979,0.156,1.825,0.469,2.54c0.313,0.717,0.793,1.35,1.44,1.902c0.648,0.552,1.619,1.124,2.914,1.713
			c1.431,0.644,2.311,1.068,2.642,1.276s0.571,0.415,0.721,0.62c0.149,0.202,0.225,0.441,0.225,0.712
			c0,0.436-0.186,0.791-0.557,1.067c-0.372,0.276-0.957,0.413-1.753,0.413c-0.923,0-1.937-0.146-3.042-0.44
			c-1.106-0.294-2.169-0.704-3.193-1.23v4.783c0.969,0.461,1.903,0.785,2.798,0.971c0.897,0.185,2.007,0.278,3.329,0.278
			c1.585,0,2.965-0.265,4.144-0.794c1.177-0.53,2.078-1.272,2.704-2.229c0.625-0.954,0.937-2.049,0.937-3.28
			c0-1.34-0.333-2.453-0.998-3.336c-0.666-0.883-1.854-1.709-3.567-2.478c-1.783-0.816-2.878-1.378-3.281-1.686
			c-0.402-0.308-0.604-0.655-0.604-1.045C65.655,130.59,65.813,130.286,66.131,130.041z"/>
		<path id="cs_p2" fill="#FFFFFF" d="M86.264,129.866c-1.739,0-3.102,0.741-4.089,2.227H81.93l-0.748-1.956h-4.319v22.075h5.312
			v-6.182c0-0.263-0.081-0.932-0.245-2.011h0.245c0.607,0.67,1.218,1.136,1.833,1.393c0.616,0.259,1.313,0.388,2.093,0.388
			c1.729,0,3.099-0.713,4.108-2.141c1.009-1.425,1.515-3.38,1.515-5.86c0-2.463-0.484-4.402-1.455-5.814
			C89.302,130.572,87.966,129.866,86.264,129.866z M85.856,140.646c-0.308,0.584-0.802,0.875-1.481,0.875
			c-0.761,0-1.317-0.293-1.671-0.883c-0.352-0.589-0.53-1.544-0.53-2.865v-0.423c0.027-1.095,0.197-1.922,0.509-2.479
			c0.313-0.558,0.858-0.836,1.636-0.836c0.716,0,1.228,0.287,1.536,0.862c0.308,0.573,0.462,1.523,0.462,2.847
			C86.317,139.095,86.164,140.062,85.856,140.646z"/>
		<path id="cs_o" fill="#FFFFFF" d="M105.826,130.831c-1.159-0.644-2.496-0.965-4.008-0.965c-2.445,0-4.345,0.695-5.699,2.085
			c-1.353,1.39-2.03,3.339-2.03,5.848c0,2.454,0.691,4.401,2.072,5.842c1.379,1.441,3.239,2.159,5.577,2.159
			c2.436,0,4.332-0.703,5.686-2.112c1.354-1.409,2.03-3.371,2.03-5.889c0-1.603-0.315-3.004-0.944-4.205
			C107.877,132.395,106.986,131.473,105.826,130.831z M103.536,140.822c-0.339,0.692-0.92,1.039-1.745,1.039
			c-0.833,0-1.427-0.347-1.781-1.039c-0.353-0.694-0.529-1.7-0.529-3.023s0.175-2.315,0.529-2.981
			c0.354-0.666,0.938-0.999,1.753-0.999c0.833,0,1.422,0.336,1.767,1.006c0.343,0.669,0.516,1.662,0.516,2.975
			C104.046,139.122,103.876,140.128,103.536,140.822z"/>
		<path id="cs_t" fill="#FFFFFF" d="M118.581,140.108v-5.991h3.777v-3.98h-3.777v-3.083h-3.477l-1.374,3.232l-2.363,1.671v2.16
			h1.861v6.346c0,1.81,0.396,3.152,1.183,4.027c0.788,0.873,2.074,1.31,3.857,1.31c0.871,0,1.628-0.065,2.275-0.197
			c0.647-0.131,1.33-0.351,2.046-0.659v-3.871c-0.997,0.354-1.854,0.53-2.568,0.53C119.062,141.603,118.581,141.104,118.581,140.108
			z"/>
	</g>
	<g>
		<g id="cs_hexagon">
			<path fill="#FFFFFF" d="M139.58,89.158H87.734l-25.924-44.9l25.924-44.9h51.846l25.924,44.9L139.58,89.158z M89.781,85.613
				h47.752l23.877-41.355L137.533,2.902H89.781L65.904,44.258L89.781,85.613z"/>
		</g>
		<path id="cs_spot" fill="#FFFFFF" d="M89.865,47.663c-4.273,1.7-6.58,5.987-4.506,11.203c2.073,5.216,15.242,15.795,15.242,15.795
			s2.309-16.733,0.235-21.948C98.762,47.497,94.141,45.964,89.865,47.663z M93.675,57.241c-1.419,0.564-3.025-0.129-3.59-1.548
			c-0.564-1.417,0.129-3.023,1.547-3.587c1.419-0.565,3.025,0.128,3.591,1.546C95.786,55.07,95.093,56.678,93.675,57.241z"/>
		<path fill="#FFFFFF" d="M142.727,37.67c0.046-9.315-11.642-23.224-26.047-23.225c-14.405,0-26.072,13.663-26.116,22.977
			c-0.035,7.46,7.498,8.629,17.894,8.799c-0.153-0.002-0.313-0.002-0.465-0.006c-0.053,8.865-3.351,18.096-3.351,20.637
			c0,7.74,5.061,9.531,11.303,9.531c6.24,0,11.3-1.791,11.3-9.531c0-2.536-3.285-11.744-3.349-20.598
			C134.769,46.197,142.691,45.364,142.727,37.67z"/>
	</g>
</g>
</svg>
